<svg class="svg-icon" style="width: 1em; height: 1em;vertical-align: middle;fill: currentColor;overflow: hidden;" viewBox="0 0 1024 1024" version="1.1" xmlns="http://www.w3.org/2000/svg"><path d="M738.901 810.667l-453.803 0c-39.595 0-71.765-32.171-71.765-71.765l0-453.845c0-39.595 32.171-71.765 71.765-71.765l453.803 0c39.595 0 71.765 32.171 71.765 71.765l0 453.845c0 39.595-32.171 71.765-71.765 71.765zM285.099 256c-16.043 0-29.099 13.099-29.099 29.099l0 453.845c0 16 13.056 29.099 29.099 29.099l453.803 0c16 0 29.099-13.099 29.099-29.099l0-453.845c0-16-13.099-29.099-29.099-29.099l-453.803 0z"  /></svg>